# xmcd CD database file
#
# Track frame offsets:
#	150
#	5149
#	19172
#	33406
#	46652
#	59623
#	71641
#	85536
#	103365
#	118566
#	136792
#	149406
#	163282
#
# Disc length: 2454 seconds
#
# Revision: 3
# Processed by: cddbd v1.4PL0 Copyright (c) Steve Scherf et al.
# Submitted via: CDex 1.40Release
#
DISCID=b509940d
DTITLE=Eddie Elliott - Just Flows
DYEAR=1997
DGENRE=Alternative Rock
TTITLE0=Wake Up
TTITLE1=Willy Wonka Revisited
TTITLE2=12 Again
TTITLE3=Thank You God
TTITLE4=Give It Away
TTITLE5=Stirling Sky
TTITLE6=Just Flows
TTITLE7=Wedding Song
TTITLE8=Meeting w/ Dollarhide
TTITLE9=I Can't Wait
TTITLE10="10 Seconds" Theme
TTITLE11=Gibby's Song
TTITLE12=Lullaby
EXTD=YEAR: 1997
EXTT0=
EXTT1=
EXTT2=
EXTT3=
EXTT4=
EXTT5=
EXTT6=
EXTT7=
EXTT8=
EXTT9=
EXTT10=
EXTT11=
EXTT12=
PLAYORDER=
